PathFileType	4	(X/Y/Z)	C:/Users/beibeiliu/ov580/test_trc/User1\sequence.5_training_dense_right.trc
DataRate	CameraRate	NumFrames	NumMarkers	Units	OrigDataRate	OrigDataStartFrame	OrigNumFrames
120	120	25	19	mm	120	34	269
Frame#	Time	ThumbCMC			ThumbMCP			ThumbIP			ThumbTip			IndexMCP			IndexPIP			IndexTip			MiddleMCP			MiddlePIP			MiddleTip			RingMCP			RingPIP			RingTip			PinkyMCP			PinkyPIP			PinkyTip			BackHand1			BackHand2			BackHand3	
		X0	Y0	Z0	X1	Y1	Z1	X2	Y2	Z2	X3	Y3	Z3	X4	Y4	Z4	X5	Y5	Z5	X6	Y6	Z6	X7	Y7	Z7	X8	Y8	Z8	X9	Y9	Z9	X10	Y10	Z10	X11	Y11	Z11	X12	Y12	Z12	X13	Y13	Z13	X14	Y14	Z14	X15	Y15	Z15	X16	Y16	Z16	X17	Y17	Z17	X18	Y18	Z18	
33	0.275	125.672	81.8619	46.0597	101.36	55.4358	30.0748	92.6431	36.9899	8.15283	98.3747	13.0705	-13.8631	122.201	79.7182	-40.7687	116.742	70.7206	-61.2336	115.413	59.0316	-84.1524	138.343	44.5068	-35.8132	116.08	19.4508	-20.8193	122.65	32.5581	15.1442	148.948	23.8238	-23.5933	130.705	7.42312	-2.83525	132.979	17.3081	27.1342	168.757	17.0807	-11.1659	145.024	11.7384	5.60303	142.932	42.763	25.1549	185.981	72.3833	5.78157	193.726	80.8939	36.7718	159.178	96.9089	26.7121	
34	0.283333	124.674	84.5262	45.6805	96.7337	59.7134	30.2003	90.9569	42.7799	12.719	90.0713	17.0735	-8.69102	121.486	77.6603	-37.0494	108.446	71.7283	-61.6782	106.166	61.1713	-80.6906	124.138	45.5387	-34.1178	108.192	22.3259	-16.8742	119.978	37.4893	19.9957	140.611	27.3252	-20.9787	123.684	10.4814	0.116595	124.881	25.9874	33.4691	160.829	17.5083	-9.23789	138.676	12.8057	9.29991	137.684	41.6447	25.2069	182.146	68.3039	8.35722	191.719	79.5777	40.1544	157.751	96.3989	24.1457	
35	0.291667	125.127	89.9388	50.4803	93.7824	66.4955	31.6062	81.5567	49.6248	14.7772	85.2018	26.3667	-2.12222	113.47	83.5484	-37.4262	107.124	72.5212	-55.7266	98.0684	66.0506	-77.6521	118.235	45.5062	-31.9921	100.378	25.1636	-10.8691	115.274	37.5256	23.5305	135.749	27.2128	-17.327	112.393	16.3016	7.99349	123.059	30.049	38.6155	150.012	17.1863	-7.99061	131.532	14.2856	9.66152	135.54	40.6301	30.7188	176.786	71.065	7.31051	191.405	79.1606	41.4842	160.179	96.8926	24.6686	
36	0.3	124.095	95.3814	47.6636	94.0286	75.1528	37.07	77.4131	58.055	13.3703	75.5014	34.709	0.298257	114.004	85.5551	-35.434	100.78	81.0599	-54.2945	94.36	69.7603	-75.489	110.46	52.2996	-28.4865	93.1288	32.2343	-8.6947	105.792	45.8733	28.5698	126.538	31.7419	-14.4899	106.046	22.0531	13.6898	117.376	37.8692	40.3361	145.637	19.2161	-4.68092	122.509	18.0289	19.535	127.743	41.7525	35.0932	172.557	68.1696	8.45968	187.466	78.1392	36.1405	160.464	98.8165	27.3523	
37	0.308333	127.324	99.8616	51.6538	91.0714	85.1754	39.225	72.5998	68.5852	16.0204	67.9504	45.2741	2.87208	111.814	91.5546	-32.4035	99.9969	85.81	-52.807	86.4737	82.6626	-74.983	106.815	56.4165	-27.488	86.4765	38.7028	-5.59715	102.445	49.6757	29.6751	118.677	35.5854	-13.3725	97.8089	29.766	16.9128	109.857	44.252	41.4208	133.952	20.2819	-1.94572	114.518	23.5758	22.1027	126.577	48.8398	38.3002	171.944	66.6724	8.26577	188.792	72.5389	34.8089	159.435	98.5124	21.9392	
38	0.316667	129.219	106.832	51.5391	92.1757	95.1873	39.0453	72.1049	80.8519	17.4987	62.1793	59.5465	7.10163	109.989	97.9704	-35.5127	96.5009	96.425	-54.5514	83.5603	89.612	-76.3461	104.96	61.5459	-26.7511	78.5548	51.6106	-6.13454	94.1723	60.2414	31.4048	108.009	42.5068	-10.677	91.0331	36.0744	15.1516	104.818	51.8296	42.8616	126.537	26.5295	-1.4671	107.238	27.2129	20.9029	119.945	51.3719	39.2427	166.959	65.5747	8.92237	184.531	72.7361	35.0894	162.558	99.5112	21.6183	
39	0.325	129.5	114.451	51.6267	92.9998	102.788	35.086	74.983	90.1219	17.4914	60.8367	71.399	8.12088	114.334	107.119	-30.0987	99.8271	106.705	-52.2284	84.6968	101.988	-74.9509	99.2215	72.8032	-27.4049	74.41	60.9869	-3.95579	92.8079	66.478	30.5685	103.17	46.651	-9.90084	85.1183	47.5626	17.1438	102.998	59.7799	43.9588	117.643	34.5362	-1.44327	100.33	37.3301	23.6649	119.371	57.7239	41.7924	165.217	63.2803	7.69356	184.488	67.7985	38.3432	163.546	101.762	21.6638	
40	0.333333	132.99	117.659	48.1527	96.4111	110.265	37.6711	74.4855	100.899	20.2527	61.1582	81.5565	6.47323	118.055	112.297	-32.0709	103.479	109.182	-53.7185	86.8631	106.738	-78.3585	101.733	75.4619	-27.7677	73.7443	71.497	-8.54719	89.643	74.409	29.6375	104.603	52.0621	-10.5622	82.1954	55.4128	16.0593	99.2199	62.6874	43.3538	113.127	34.5196	0.291481	96.0307	42.8349	25.0035	115.809	60.7616	43.5398	162.281	65.557	7.71929	183.771	66.9849	36.9459	165.074	97.9123	23.3181	
41	0.341667	138.102	118.093	48.5882	99.6458	118.008	40.0462	78.4774	107.834	18.8684	59.9896	89.5497	5.47939	121.818	117.255	-32.6883	106.843	115.847	-54.6627	92.3612	115.651	-74.705	98.9861	83.7211	-28.2525	73.4734	77.5195	-6.59545	92.1332	79.5277	29.3872	98.6986	58.3341	-10.6236	79.3614	63.8444	13.2206	100.746	69.7867	43.4532	110.941	39.1089	0.13068	93.8519	53.5691	24.2518	113.15	65.0076	42.8209	163.417	63.596	9.1716	178.871	64.0275	36.423	167.527	100.6	24.3678	
42	0.35	142.225	118.943	47.2708	104.661	121.702	39.3837	79.8955	116.61	18.6578	60.3913	99.0659	4.39962	124.511	116.626	-35.9165	111.984	118.066	-53.5638	97.3534	118.911	-75.1073	100.585	86.7688	-28.7064	74.5259	85.7836	-9.80054	90.5664	87.5287	28.3438	99.922	67.9049	-11.7422	78.3502	72.0142	14.3677	94.866	78.9423	40.5435	106.432	43.784	0.12739	88.5436	56.571	22.0188	113.042	71.3759	42.5089	161.861	63.4202	9.84566	177.876	60.7856	36.718	168.364	98.9232	21.8227	
43	0.358333	146.772	122.936	48.9491	110.474	125.913	38.0482	87.04	123.587	20.2423	67.5399	110.142	7.30127	133.107	117.751	-31.8622	118.37	125.982	-57.3272	106.006	125.932	-75.6315	108.599	94.1311	-26.8933	77.3766	99.9965	-9.07592	90.7918	97.151	26.728	101.415	72.6229	-13.7795	78.8867	81.9794	14.1989	95.1145	81.3409	40.7497	102.009	50.105	-1.03125	88.7331	66.9523	19.8134	111.69	75.9856	40.6422	160.845	63.4483	11.2663	177.532	59.2796	37.8727	172.53	93.3896	26.2462	
44	0.366667	149.67	118.918	46.5175	116.084	129.116	38.0708	92.7317	128.869	19.7647	70.9052	117.045	5.21475	138.743	122.184	-35.9525	127.747	127.934	-54.4018	113.577	126.204	-79.0554	109.491	99.5679	-27.7768	80.4587	102.829	-8.87701	94.7833	101.247	27.2748	98.9931	77.5018	-13.2039	79.3325	88.6674	12.4598	94.6679	87.4266	39.6616	103.91	58.0815	-1.85057	88.1915	71.7661	19.7138	111.367	82.6256	36.5968	159.704	61.6254	7.77036	175.412	55.9394	43.2033	175.205	93.4787	27.7663	
45	0.375	155.055	118.422	47.6644	121.402	133.374	33.9156	99.1245	136.53	14.693	75.7624	124.206	-0.954544	148.095	117.885	-32.3004	137.675	128.862	-55.1212	125.615	131.205	-81.449	116.636	102.546	-29.0967	87.4217	111.481	-13.9314	98.1748	104.535	25.5349	107.427	80.7394	-15.6526	82.1546	94.0986	7.79027	93.1651	95.0137	38.0001	101.235	58.8241	-3.50129	89.2197	76.7944	12.1281	107.047	86.0175	40.1951	160.394	61.9622	11.9101	175.268	49.9963	44.5341	178.277	92.8859	26.2745	
46	0.383333	162.633	119.631	47.1891	132.35	134.46	31.6203	109.124	140.097	8.58479	89.8189	131.41	-2.79156	160.288	118.884	-33.5387	151.669	123.424	-58.2842	141.451	127.76	-86.2809	125.393	101.688	-31.3181	96.1014	115.979	-16.4633	103.312	109.247	21.2325	113.414	83.3496	-19.7087	87.7403	100.32	0.618858	94.613	101.772	32.5392	102.543	61.5027	-7.1636	89.9144	82.088	12.5284	108.447	93.0578	32.902	158.296	55.1672	8.9758	172.75	46.9404	41.104	181.438	83.6008	26.993	
47	0.391667	169.033	111.792	48.4518	140.313	136.5	29.3761	120.569	142.304	8.30864	99.9466	131.843	-8.40165	169.524	114.099	-33.3217	161.912	117.254	-60.9729	156.943	125.497	-83.8027	129.709	98.861	-34.3526	102.602	117.191	-17.6924	110.508	113.411	20.5376	117.484	81.6147	-22.1126	91.0007	100.784	-2.67274	97.0101	105.112	26.5796	107.428	63.4031	-9.06112	96.3722	85.9849	3.98116	109.553	97.8216	28.9697	161.81	49.9522	11.7233	173.954	44.4429	45.9862	185.781	78.3337	30.9149	
48	0.4	173.644	110.327	47.1156	147.187	134.098	29.0571	127.601	139.357	3.8596	107.33	135.611	-9.62036	175.558	106.235	-40.0842	173.719	113.97	-58.262	166.577	114.771	-84.2054	135.413	95.2972	-36.1417	110.961	116.06	-23.3344	114.625	113.176	16.4953	122.016	81.8507	-24.9471	98.3062	100.178	-10.2505	102.128	103.514	27.4022	111.386	60.4345	-9.93027	95.1258	83.4441	2.93946	112.478	97.0703	26.1728	162.476	46.0978	13.9829	172.298	38.2722	43.909	188.463	72.825	29.9367	
49	0.408333	176.502	104.036	44.622	152.033	128.487	21.7864	135.19	136.302	3.42333	114.314	131.229	-15.8341	182.042	98.2037	-36.2865	180.965	104.882	-64.3811	178.515	106.97	-89.702	147.271	91.4479	-35.9082	114.424	110.234	-24.4129	117.975	109.858	11.5847	123.858	75.9349	-25.8789	105.206	99.4367	-13.0358	106.216	103.019	23.549	118.024	58.5313	-12.2651	100.671	80.8875	0.632784	115.601	95.2237	23.8016	165.22	42.1658	12.0053	173.111	37.6828	45.4198	191.797	66.5845	30.9005	
50	0.416667	180.595	103.556	42.9202	156.695	126.532	22.0782	141.835	130.841	-0.0878869	121.267	126.912	-22.3773	192.404	92.3656	-37.3911	192.492	96.6974	-61.9191	190.509	96.9957	-86.4645	150.193	88.0312	-39.7054	125.381	107.002	-30.719	120.453	102.795	8.95646	129.984	69.8784	-27.852	109.679	92.6344	-15.878	108.904	97.3864	20.1689	121.381	54.8136	-13.7706	109.901	79.5851	-4.06411	118.227	88.2625	24.6618	170.665	40.0476	10.4245	176.771	32.6359	45.4467	193.125	61.5777	33.0673	
51	0.425	183.611	100.203	46.2639	161.897	118.705	17.2721	147.136	122.73	-3.87043	128.557	119.346	-25.9073	197.377	82.6392	-34.151	197.905	86.4482	-58.7684	201.948	89.1596	-85.9396	159.19	77.5717	-38.4192	131.535	99.8886	-34.3599	127.642	103.077	7.44239	136.28	61.9925	-28.8851	115.615	90.7426	-17.0832	112.449	93.6871	16.1606	125.762	50.0962	-16.1492	111.071	70.7641	-6.69452	125.736	85.5972	23.1485	174.015	33.9626	12.0152	175.748	25.8565	48.8507	198.525	58.0294	33.8228	
52	0.433333	187.309	95.5196	44.179	165.184	116.205	16.8142	151.873	116.218	-8.37671	134.261	116.012	-28.2677	203.605	76.5326	-37.1479	209.263	81.0335	-60.2133	210.705	76.2402	-87.8886	163.037	71.8344	-41.3644	139.108	95.222	-36.2852	130.229	94.8244	3.40823	143.096	60.6151	-30.9007	121.328	83.1959	-21.3792	116.232	90.5092	11.9953	132.334	43.6683	-17.011	118.838	68.704	-9.70952	129.401	82.4052	17.4397	176.123	26.8183	15.1988	179.145	26.2727	53.9039	198.495	52.6699	35.2216	
53	0.441667	190.07	91.4865	45.2198	170.423	113.53	16.7631	157.729	114.722	-7.38946	140.039	109.91	-33.2733	210.215	70.0864	-31.4195	213.702	70.7012	-54.881	217.709	67.9259	-80.8656	173.301	67.1603	-39.5829	142.272	89.6979	-36.7719	134.195	90.8144	-0.391502	147.164	54.2696	-31.8341	126.173	76.9437	-24.7012	123.055	90.3828	8.13259	135.888	37.1431	-16.3853	120.467	61.9362	-11.4424	132.77	80.6264	13.1235	180.064	22.6645	19.8873	181.315	22.1799	54.6981	205.077	50.1253	37.4252	
54	0.45	191.556	85.2228	46.0259	173.829	104.842	18.5427	163.662	108.536	-10.9121	148.031	107.278	-30.2105	217.705	63.0833	-32.7947	225.23	64.7698	-55.8987	229.586	60.5529	-76.6947	178.731	61.101	-40.4552	150.239	84.341	-38.4283	141.812	90.3903	-4.69617	155.792	50.9172	-30.9509	131.64	70.803	-26.3641	125.489	84.7586	1.83157	140.548	35.4133	-18.0033	128.501	60.1568	-11.3371	136.791	76.9929	17.2602	185.126	21.4035	19.211	182.433	17.8925	57.2003	208.893	45.8125	37.4726	
55	0.458333	194.764	80.8499	45.5896	178.848	98.7991	14.5679	168.927	104.793	-9.26228	154.282	99.2035	-33.9458	225.512	59.0926	-27.8167	231.673	56.697	-51.0865	238.998	52.4527	-71.7705	186.433	53.6967	-38.8757	160.083	76.8931	-41.5503	147.225	83.5898	-3.5535	162.144	40.5816	-29.5454	141.501	70.8871	-26.9902	128.541	79.81	1.09868	148.763	28.584	-16.5465	132.313	55.055	-12.4123	143.053	73.9055	11.2097	189.292	14.8394	21.5021	184.628	15.6042	59.8588	212.698	44.2296	41.1155	
56	0.466667	199.146	78.4008	45.9717	182.411	96.9233	14.3646	175.381	98.8856	-12.1314	161.489	96.634	-35.3929	231.381	52.5026	-25.5363	239.93	54.061	-44.6741	250.859	47.6272	-69.0881	194.522	48.2136	-37.3065	168.072	69.1363	-43.4714	154.239	80.2129	-7.95076	172.056	38.2854	-28.8166	145.303	62.3451	-29.6186	134.839	74.7267	-2.76931	156.18	25.9816	-17.2622	138.603	50.306	-15.0179	144.847	67.5281	12.3316	191.246	11.5441	26.0316	188.461	12.614	61.1931	213.681	38.4472	43.2523	
57	0.475	201.665	77.6611	47.8342	187.575	94.3627	11.9975	180.479	97.7256	-16.6398	168.074	91.8099	-34.3411	238.945	51.2256	-19.4087	248.448	48.0256	-42.2269	258.549	42.3349	-66.5069	200.219	42.8203	-35.9376	174.193	67.9031	-42.6394	159.778	74.1944	-8.71637	176.573	31.6705	-28.1889	154.077	57.5569	-31.8581	144.111	75.0653	-4.32867	158.104	21.0101	-18.1805	149.219	47.1705	-16.8555	153.811	66.3373	12.399	198.508	11.3986	28.8364	191.386	10.5385	60.6043	216.818	36.0297	46.1882	
